<svg xmlns="http://www.w3.org/2000/svg" width="236.241" height="49.45" viewBox="0 0 236.241 49.45">
  <g id="Group_71" data-name="Group 71" transform="translate(-103 -56.255)">
    <g id="Group_67" data-name="Group 67" transform="translate(10 2)">
      <path id="Path_29" data-name="Path 29" d="M-35.92-2.6V-5.84h6.5V-8.36h-6.5V-11.4h7.36V-14H-39.14V0H-28.3V-2.6ZM-13.3,0l-5.22-7.24L-13.64-14h-3.5L-20.3-9.46-23.52-14H-27.2l4.92,6.88L-27.46,0h3.72l3.32-4.86L-17.04,0ZM-1.86-14-6.18-4l-4.26-10h-3.5L-7.9,0h3.2L1.36-14ZM12.52,0h3.4L9.66-14H6.46L.22,0H3.54L4.78-3h6.5ZM5.82-5.46l2.22-5.36,2.22,5.36ZM19.58,0h3.24V-11.36H27.3V-14H15.1v2.64h4.48ZM32.26-2.6V-5.84h6.5V-8.36h-6.5V-11.4h7.36V-14H29.04V0H39.88V-2.6Z" transform="translate(195 77)" fill="#3b3b3b"/>
      <path id="Path_30" data-name="Path 30" d="M-78.281,0-80.6-3.29a3.093,3.093,0,0,0,2.156-3.094c0-2.128-1.54-3.416-4.088-3.416h-3.822V0h1.4V-2.982h2.422c.21,0,.42-.014.616-.028L-79.807,0Zm-4.3-4.172h-2.38v-4.41h2.38c1.792,0,2.73.8,2.73,2.2S-80.787-4.172-82.579-4.172Zm8.834-3.318a4.941,4.941,0,0,0-3.066.952l.56,1.008a3.752,3.752,0,0,1,2.352-.8c1.33,0,1.988.658,1.988,1.792v.266h-2.128c-2.212,0-2.982.98-2.982,2.17,0,1.288,1.064,2.184,2.744,2.184A2.754,2.754,0,0,0-71.841-.98V0h1.274V-4.48C-70.567-6.51-71.715-7.49-73.745-7.49Zm-.308,6.538c-1.022,0-1.638-.462-1.638-1.2,0-.63.378-1.148,1.708-1.148h2.072v1.036A2.152,2.152,0,0,1-74.053-.952ZM-58.191-7.42-60.4-1.484-62.6-7.42h-1.134l-2.24,5.908L-68.131-7.42H-69.4L-66.647,0h1.288l2.17-5.628L-61.047,0h1.288l2.772-7.42Zm15.61-.07a3.344,3.344,0,0,0-2.856,1.372A2.746,2.746,0,0,0-48.013-7.49a3.007,3.007,0,0,0-2.562,1.176V-7.42h-1.288V0h1.344V-3.822a2.154,2.154,0,0,1,2.226-2.464c1.218,0,1.918.714,1.918,2.17V0h1.344V-3.822A2.154,2.154,0,0,1-42.8-6.286c1.218,0,1.918.714,1.918,2.17V0h1.344V-4.27C-39.543-6.454-40.775-7.49-42.581-7.49Zm8.218,0a4.941,4.941,0,0,0-3.066.952l.56,1.008a3.752,3.752,0,0,1,2.352-.8c1.33,0,1.988.658,1.988,1.792v.266h-2.128c-2.212,0-2.982.98-2.982,2.17,0,1.288,1.064,2.184,2.744,2.184A2.754,2.754,0,0,0-32.459-.98V0h1.274V-4.48C-31.185-6.51-32.333-7.49-34.363-7.49Zm-.308,6.538c-1.022,0-1.638-.462-1.638-1.2,0-.63.378-1.148,1.708-1.148h2.072v1.036A2.152,2.152,0,0,1-34.671-.952Zm9.73-.448a1.693,1.693,0,0,1-1.05.35A1.093,1.093,0,0,1-27.153-2.3V-6.314h2.128V-7.42h-2.128V-9.044H-28.5V-7.42h-1.26v1.106h1.26V-2.24A2.117,2.117,0,0,0-26.145.084a2.535,2.535,0,0,0,1.624-.518Zm8.5-2.268A3.578,3.578,0,0,0-20.111-7.49a3.634,3.634,0,0,0-3.724,3.78A3.715,3.715,0,0,0-19.845.084a3.724,3.724,0,0,0,2.926-1.2l-.742-.868a2.77,2.77,0,0,1-2.142.9,2.513,2.513,0,0,1-2.688-2.17h6.02C-16.457-3.388-16.443-3.556-16.443-3.668Zm-3.668-2.688a2.314,2.314,0,0,1,2.38,2.128h-4.76A2.313,2.313,0,0,1-20.111-6.356Zm6.818.182V-7.42h-1.288V0h1.344V-3.7A2.214,2.214,0,0,1-10.9-6.2a2.373,2.373,0,0,1,.308.014v-1.3A2.832,2.832,0,0,0-13.293-6.174Zm5.026-2.674a.879.879,0,0,0,.91-.9.871.871,0,0,0-.91-.854.885.885,0,0,0-.91.882A.874.874,0,0,0-8.267-8.848ZM-8.939,0h1.344V-7.42H-8.939Zm6.608-7.49A4.941,4.941,0,0,0-5.4-6.538l.56,1.008a3.752,3.752,0,0,1,2.352-.8c1.33,0,1.988.658,1.988,1.792v.266H-2.625c-2.212,0-2.982.98-2.982,2.17C-5.607-.812-4.543.084-2.863.084A2.754,2.754,0,0,0-.427-.98V0H.847V-4.48C.847-6.51-.3-7.49-2.331-7.49ZM-2.639-.952c-1.022,0-1.638-.462-1.638-1.2,0-.63.378-1.148,1.708-1.148H-.5v1.036A2.152,2.152,0,0,1-2.639-.952ZM3.339,0H4.683V-10.388H3.339ZM9.373.084c1.974,0,3.206-.854,3.206-2.2,0-2.884-4.7-1.456-4.7-3.206,0-.588.574-1.022,1.75-1.022a3.875,3.875,0,0,1,2.142.588l.574-1.064a5.4,5.4,0,0,0-2.7-.672c-1.9,0-3.094.9-3.094,2.226,0,2.954,4.69,1.512,4.69,3.178,0,.63-.518,1.008-1.764,1.008a4.768,4.768,0,0,1-2.6-.77L6.307-.784A5.355,5.355,0,0,0,9.373.084ZM14.6-1.834a.916.916,0,0,0-.938.952.89.89,0,0,0,.588.868l-.518,2.086h.882L15.267.126a2.831,2.831,0,0,0,.238-1.008A.9.9,0,0,0,14.6-1.834ZM31.227-7.42,29.015-1.484l-2.2-5.936H25.683l-2.24,5.908L21.287-7.42H20.013L22.771,0h1.288l2.17-5.628L28.371,0h1.288l2.772-7.42Zm3.234-1.428a.879.879,0,0,0,.91-.9.871.871,0,0,0-.91-.854.885.885,0,0,0-.91.882A.874.874,0,0,0,34.461-8.848ZM33.789,0h1.344V-7.42H33.789Zm7.658-1.4a1.693,1.693,0,0,1-1.05.35A1.093,1.093,0,0,1,39.235-2.3V-6.314h2.128V-7.42H39.235V-9.044H37.891V-7.42h-1.26v1.106h1.26V-2.24A2.117,2.117,0,0,0,40.243.084a2.535,2.535,0,0,0,1.624-.518Zm6.006-6.09a3.217,3.217,0,0,0-2.618,1.12v-4.018H43.491V0h1.344V-3.822a2.2,2.2,0,0,1,2.352-2.464c1.274,0,2,.714,2,2.17V0h1.344V-4.27A2.874,2.874,0,0,0,47.453-7.49ZM63.5-3.668A3.578,3.578,0,0,0,59.829-7.49,3.634,3.634,0,0,0,56.1-3.71,3.715,3.715,0,0,0,60.095.084a3.724,3.724,0,0,0,2.926-1.2l-.742-.868a2.77,2.77,0,0,1-2.142.9,2.513,2.513,0,0,1-2.688-2.17h6.02C63.483-3.388,63.5-3.556,63.5-3.668ZM59.829-6.356a2.314,2.314,0,0,1,2.38,2.128h-4.76A2.313,2.313,0,0,1,59.829-6.356ZM67.851-7.49a4.941,4.941,0,0,0-3.066.952l.56,1.008a3.752,3.752,0,0,1,2.352-.8c1.33,0,1.988.658,1.988,1.792v.266H67.557c-2.212,0-2.982.98-2.982,2.17,0,1.288,1.064,2.184,2.744,2.184A2.754,2.754,0,0,0,69.755-.98V0h1.274V-4.48C71.029-6.51,69.881-7.49,67.851-7.49ZM67.543-.952c-1.022,0-1.638-.462-1.638-1.2,0-.63.378-1.148,1.708-1.148h2.072v1.036A2.152,2.152,0,0,1,67.543-.952ZM75.649.084c1.974,0,3.206-.854,3.206-2.2,0-2.884-4.7-1.456-4.7-3.206,0-.588.574-1.022,1.75-1.022a3.875,3.875,0,0,1,2.142.588l.574-1.064a5.4,5.4,0,0,0-2.7-.672c-1.9,0-3.094.9-3.094,2.226,0,2.954,4.69,1.512,4.69,3.178,0,.63-.518,1.008-1.764,1.008a4.768,4.768,0,0,1-2.6-.77l-.56,1.064A5.355,5.355,0,0,0,75.649.084ZM87.241-3.668A3.578,3.578,0,0,0,83.573-7.49a3.634,3.634,0,0,0-3.724,3.78A3.715,3.715,0,0,0,83.839.084a3.724,3.724,0,0,0,2.926-1.2l-.742-.868a2.77,2.77,0,0,1-2.142.9,2.513,2.513,0,0,1-2.688-2.17h6.02C87.227-3.388,87.241-3.556,87.241-3.668ZM83.573-6.356a2.314,2.314,0,0,1,2.38,2.128h-4.76A2.313,2.313,0,0,1,83.573-6.356Z" transform="translate(242 96)" fill="rgba(59,59,59,0.8)"/>
    </g>
    <g id="Group_69" data-name="Group 69" transform="translate(31 -15.745)">
      <path id="Path_27" data-name="Path 27" d="M252.45,75.411l-12.324-2.739A28.2,28.2,0,0,0,234,72v49.45a28.2,28.2,0,0,0,6.126-.672l12.324-2.739a5.648,5.648,0,0,0,4.422-5.513v-31.6A5.648,5.648,0,0,0,252.45,75.411Zm-.661,35.427a2.823,2.823,0,0,1-2.211,2.756l-7.507,1.669a1.413,1.413,0,0,1-1.718-1.379V79.566a1.413,1.413,0,0,1,1.718-1.379l7.507,1.669a2.823,2.823,0,0,1,2.211,2.756Z" transform="translate(-139.128)" fill="#469bd9"/>
      <path id="Path_28" data-name="Path 28" d="M88.746,72.672,76.422,75.411A5.648,5.648,0,0,0,72,80.924v31.6a5.648,5.648,0,0,0,4.422,5.513l12.324,2.739a28.2,28.2,0,0,0,6.126.672V72A28.2,28.2,0,0,0,88.746,72.672Zm-.227,41.211a1.413,1.413,0,0,1-1.718,1.379l-7.507-1.669a2.823,2.823,0,0,1-2.211-2.756V82.612a2.823,2.823,0,0,1,2.211-2.756L86.8,78.187a1.413,1.413,0,0,1,1.718,1.379Z" fill="#0f3181"/>
    </g>
  </g>
</svg>
